<svg width="24px"  height="24px"  viewBox="0 0 25 24" fill="none" xmlns="http://www.w3.org/2000/svg">
<path fill-rule="evenodd" clip-rule="evenodd" d="M2.5 6.87022C2.5 4.1461 4.7086 1.9375 7.43272 1.9375H17.0683C19.7926 1.9375 22 4.14633 22 6.87022V14.3037C22 17.0277 19.7925 19.2364 17.0673 19.2364H7.43272C4.70883 19.2364 2.5 17.029 2.5 14.3046V6.87022ZM7.43272 3.4375C5.53703 3.4375 4 4.97453 4 6.87022V14.3046C4 16.2001 5.5368 17.7364 7.43272 17.7364H17.0673C18.9638 17.7364 20.5 16.1995 20.5 14.3037V6.87022C20.5 4.9743 18.9637 3.4375 17.0683 3.4375H7.43272Z" fill="#000000" />
<path fill-rule="evenodd" clip-rule="evenodd" d="M15.6055 20.8203C15.6055 20.4061 15.9413 20.0703 16.3555 20.0703H18.6183C19.0325 20.0703 19.3683 20.4061 19.3683 20.8203C19.3683 21.2345 19.0325 21.5703 18.6183 21.5703H16.3555C15.9413 21.5703 15.6055 21.2345 15.6055 20.8203Z" fill="#000000" />
<path fill-rule="evenodd" clip-rule="evenodd" d="M5.13379 20.8203C5.13379 20.4061 5.46958 20.0703 5.88379 20.0703H8.14665C8.56087 20.0703 8.89665 20.4061 8.89665 20.8203C8.89665 21.2345 8.56087 21.5703 8.14665 21.5703H5.88379C5.46958 21.5703 5.13379 21.2345 5.13379 20.8203Z" fill="#000000" />
<path fill-rule="evenodd" clip-rule="evenodd" d="M14.6621 6.61719C15.0763 6.61719 15.4121 6.95297 15.4121 7.36719V8.44129C15.4121 8.8555 15.0763 9.19129 14.6621 9.19129C14.2479 9.19129 13.9121 8.8555 13.9121 8.44129V7.36719C13.9121 6.95297 14.2479 6.61719 14.6621 6.61719Z" fill="#000000" />
<path fill-rule="evenodd" clip-rule="evenodd" d="M14.6621 11.9844C15.0763 11.9844 15.4121 12.3202 15.4121 12.7344V13.8085C15.4121 14.2227 15.0763 14.5585 14.6621 14.5585C14.2479 14.5585 13.9121 14.2227 13.9121 13.8085V12.7344C13.9121 12.3202 14.2479 11.9844 14.6621 11.9844Z" fill="#000000" />
<path fill-rule="evenodd" clip-rule="evenodd" d="M11.2203 8.60075C11.4279 8.24233 11.8868 8.12009 12.2452 8.32771L13.1723 8.86476C13.5307 9.07239 13.653 9.53126 13.4453 9.88968C13.2377 10.2481 12.7788 10.3703 12.4204 10.1627L11.4933 9.62566C11.1349 9.41804 11.0127 8.95917 11.2203 8.60075Z" fill="#000000" />
<path fill-rule="evenodd" clip-rule="evenodd" d="M15.8765 11.2843C16.0842 10.9259 16.543 10.8037 16.9015 11.0113L17.8286 11.5484C18.187 11.756 18.3092 12.2149 18.1016 12.5733C17.894 12.9317 17.4351 13.0539 17.0767 12.8463L16.1496 12.3093C15.7912 12.1016 15.6689 11.6428 15.8765 11.2843Z" fill="#000000" />
<path fill-rule="evenodd" clip-rule="evenodd" d="M13.4453 11.2843C13.653 11.6428 13.5307 12.1016 13.1723 12.3093L12.2452 12.8463C11.8868 13.0539 11.4279 12.9317 11.2203 12.5733C11.0127 12.2149 11.1349 11.756 11.4933 11.5484L12.4204 11.0113C12.7788 10.8037 13.2377 10.9259 13.4453 11.2843Z" fill="#000000" />
<path fill-rule="evenodd" clip-rule="evenodd" d="M18.1016 8.60075C18.3092 8.95917 18.187 9.41804 17.8286 9.62566L16.9015 10.1627C16.543 10.3703 16.0842 10.2481 15.8765 9.88968C15.6689 9.53126 15.7912 9.07239 16.1496 8.86476L17.0767 8.32771C17.4351 8.12009 17.894 8.24233 18.1016 8.60075Z" fill="#000000" />
<path fill-rule="evenodd" clip-rule="evenodd" d="M15.65 9.59646C15.104 9.05124 14.2195 9.05118 13.6734 9.59627C13.1283 10.1423 13.1284 11.0279 13.6736 11.5739C13.6736 11.5739 13.6737 11.5739 13.6737 11.574M16.7121 8.53717C17.8423 9.66908 17.8418 11.5031 16.7105 12.6343C15.5787 13.7661 13.7445 13.7661 12.6128 12.6343L12.6124 12.634C11.482 11.5023 11.482 9.66763 12.6124 8.53592L12.6131 8.5353L12.6131 8.5353C13.7448 7.4049 15.5785 7.4049 16.7102 8.5353C16.7103 8.5354 16.7104 8.5355 16.7105 8.53561M15.65 9.59646C15.6501 9.5965 15.6501 9.59654 15.6501 9.59658C15.6501 9.59654 15.6501 9.5965 15.65 9.59646ZM13.6737 11.574C14.2198 12.1197 15.1039 12.1196 15.6498 11.5737C16.1957 11.0278 16.1958 10.1426 15.6501 9.59658" fill="#000000" />
<path fill-rule="evenodd" clip-rule="evenodd" d="M6.2998 8.48536C6.2998 7.45766 7.13246 6.625 8.16017 6.625H8.55021C8.96443 6.625 9.30021 6.96079 9.30021 7.375C9.30021 7.78921 8.96443 8.125 8.55021 8.125H8.16017C7.96089 8.125 7.7998 8.28608 7.7998 8.48536V12.6887C7.7998 12.8874 7.96132 13.049 8.16017 13.049H8.55021C8.96443 13.049 9.30021 13.3848 9.30021 13.799C9.30021 14.2132 8.96443 14.549 8.55021 14.549H8.16017C7.13203 14.549 6.2998 13.715 6.2998 12.6887V8.48536Z" fill="#000000" />
</svg>