<svg width="24px"  height="24px"  viewBox="0 0 25 24" fill="none" xmlns="http://www.w3.org/2000/svg">
<path fill-rule="evenodd" clip-rule="evenodd" d="M17.4409 10.0938C16.4571 10.0938 15.6602 10.8913 15.6602 11.8745C15.6602 12.8588 16.4573 13.6561 17.4409 13.6561H21.2481C21.6623 13.6561 21.9981 13.9919 21.9981 14.4061C21.9981 14.8203 21.6623 15.1561 21.2481 15.1561H17.4409C15.6281 15.1561 14.1602 13.6865 14.1602 11.8745C14.1602 10.0632 15.6283 8.59375 17.4409 8.59375H21.2481C21.6623 8.59375 21.9981 8.92954 21.9981 9.34375C21.9981 9.75796 21.6623 10.0938 21.2481 10.0938H17.4409Z" fill="#000000" />
<path fill-rule="evenodd" clip-rule="evenodd" d="M16.4941 11.8164C16.4941 11.4022 16.8299 11.0664 17.2441 11.0664H17.2471C17.6613 11.0664 17.9971 11.4022 17.9971 11.8164C17.9971 12.2306 17.6613 12.5664 17.2471 12.5664H17.2441C16.8299 12.5664 16.4941 12.2306 16.4941 11.8164Z" fill="#000000" />
<path fill-rule="evenodd" clip-rule="evenodd" d="M8.18589 4.4375C5.87384 4.4375 4 6.31134 4 8.62339V11.6114C4 12.0256 3.66421 12.3614 3.25 12.3614C2.83579 12.3614 2.5 12.0256 2.5 11.6114V8.62339C2.5 5.48291 5.04541 2.9375 8.18589 2.9375H16.3141C19.4546 2.9375 22 5.48291 22 8.62339V15.3729C22 18.5134 19.4546 21.0588 16.3141 21.0588H11.9474C11.5332 21.0588 11.1974 20.723 11.1974 20.3088C11.1974 19.8946 11.5332 19.5588 11.9474 19.5588H16.3141C18.6262 19.5588 20.5 17.685 20.5 15.3729V8.62339C20.5 6.31134 18.6262 4.4375 16.3141 4.4375H8.18589Z" fill="#000000" />
<path fill-rule="evenodd" clip-rule="evenodd" d="M2.5 17.5898C2.5 17.1756 2.83579 16.8398 3.25 16.8398H8.68795C9.10216 16.8398 9.43795 17.1756 9.43795 17.5898C9.43795 18.0041 9.10216 18.3398 8.68795 18.3398H3.25C2.83579 18.3398 2.5 18.0041 2.5 17.5898Z" fill="#000000" />
<path fill-rule="evenodd" clip-rule="evenodd" d="M5.96777 14.1211C6.38199 14.1211 6.71777 14.4569 6.71777 14.8711V20.309C6.71777 20.7233 6.38199 21.059 5.96777 21.059C5.55356 21.059 5.21777 20.7233 5.21777 20.309V14.8711C5.21777 14.4569 5.55356 14.1211 5.96777 14.1211Z" fill="#000000" />
</svg>