<svg width="24px"  height="24px"  viewBox="0 0 25 24" fill="none" xmlns="http://www.w3.org/2000/svg">
<path fill-rule="evenodd" clip-rule="evenodd" d="M9.60048 4.53906C8.38209 4.53906 7.39478 5.52653 7.39478 6.74523C7.39478 7.96273 8.38188 8.95025 9.60048 8.95025C10.8043 8.95025 11.7824 7.9865 11.8061 6.7896C11.8053 6.77492 11.8048 6.76012 11.8048 6.74523C11.8048 6.7303 11.8053 6.71548 11.8061 6.70077C11.7825 5.50272 10.8042 4.53906 9.60048 4.53906ZM13.2307 5.99523C12.884 4.30783 11.3905 3.03906 9.60048 3.03906C7.81034 3.03906 6.31732 4.30795 5.97068 5.99523H3.75C3.33579 5.99523 3 6.33101 3 6.74523C3 7.15944 3.33579 7.49522 3.75 7.49522H5.97074C6.31752 9.18178 7.81063 10.4502 9.60048 10.4502C11.3902 10.4502 12.8837 9.18182 13.2306 7.49522H21.75C22.1642 7.49522 22.5 7.15944 22.5 6.74523C22.5 6.33101 22.1642 5.99523 21.75 5.99523H13.2307ZM16.1685 15.0486C14.9499 15.0486 13.9628 16.0362 13.9628 17.2538C13.9628 18.4724 14.95 19.4598 16.1685 19.4598C17.3865 19.4598 18.3728 18.4729 18.3728 17.2538C18.3728 16.0358 17.3866 15.0486 16.1685 15.0486ZM12.5387 16.5038C12.8855 14.8172 14.3786 13.5486 16.1685 13.5486C17.9587 13.5486 19.4504 14.8175 19.7969 16.5038H21.75C22.1642 16.5038 22.5 16.8396 22.5 17.2538C22.5 17.668 22.1642 18.0038 21.75 18.0038H19.797C19.4506 19.6908 17.9589 20.9598 16.1685 20.9598C14.3784 20.9598 12.8853 19.6911 12.5387 18.0038H3.75C3.33579 18.0038 3 17.668 3 17.2538C3 16.8396 3.33579 16.5038 3.75 16.5038H12.5387Z" fill="#000000" />
</svg>