<svg width="24px"  height="24px"  viewBox="0 0 25 24" fill="none" xmlns="http://www.w3.org/2000/svg">
<path fill-rule="evenodd" clip-rule="evenodd" d="M16.2246 2.25C16.6388 2.25 16.9746 2.58579 16.9746 3V5.96174C16.9746 6.37595 16.6388 6.71174 16.2246 6.71174C15.8104 6.71174 15.4746 6.37595 15.4746 5.96174V3C15.4746 2.58579 15.8104 2.25 16.2246 2.25Z" fill="#000000" />
<path fill-rule="evenodd" clip-rule="evenodd" d="M8.9541 2.25C9.36832 2.25 9.7041 2.58579 9.7041 3V5.96174C9.7041 6.37595 9.36832 6.71174 8.9541 6.71174C8.53989 6.71174 8.2041 6.37595 8.2041 5.96174V3C8.2041 2.58579 8.53989 2.25 8.9541 2.25Z" fill="#000000" />
<path fill-rule="evenodd" clip-rule="evenodd" d="M5.12318 4.95257C6.0422 4.07898 7.32129 3.67188 8.77812 3.67188H16.3985C17.8586 3.67188 19.1384 4.07866 20.0561 4.95324C20.9794 5.83328 21.4386 7.094 21.4344 8.60132C21.4344 8.60154 21.4344 8.60177 21.4344 8.60199L21.4344 16.8137C21.4344 18.3212 20.9731 19.5831 20.0497 20.4646C19.1316 21.341 17.8519 21.7504 16.3907 21.7504H8.77812C7.31679 21.7504 6.03608 21.3322 5.11793 20.4423C4.19605 19.5488 3.73438 18.2716 3.73438 16.7456V8.59984C3.73438 7.09167 4.19836 5.83167 5.12318 4.95257ZM6.15663 6.03976C5.59547 6.57317 5.23438 7.40215 5.23438 8.59984V16.7456C5.23438 17.9683 5.59778 18.8185 6.16188 19.3652C6.72971 19.9156 7.59587 20.2504 8.77812 20.2504H16.3907C17.5808 20.2504 18.448 19.9198 19.0139 19.3796C19.5745 18.8445 19.9344 18.013 19.9344 16.8137V8.59984L19.9344 8.59768C19.9379 7.39945 19.5798 6.57144 19.0212 6.03908C18.4568 5.50115 17.5897 5.17188 16.3985 5.17188H8.77812C7.59137 5.17188 6.72359 5.50083 6.15663 6.03976Z" fill="#000000" />
<path fill-rule="evenodd" clip-rule="evenodd" d="M8.35596 10.7422C8.35596 10.328 8.69174 9.99219 9.10596 9.99219H12.2555C12.5444 9.99219 12.8076 10.1581 12.9321 10.4187C13.0567 10.6793 13.0206 10.9884 12.8392 11.2132L11.7339 12.5829C12.4918 13.0263 13.0006 13.8489 13.0006 14.7898C13.0006 16.2013 11.8573 17.3446 10.4457 17.3446C9.73951 17.3446 9.09957 17.0573 8.6379 16.5957C8.345 16.3028 8.345 15.8279 8.6379 15.535C8.93079 15.2421 9.40566 15.2421 9.69856 15.535C9.89072 15.7272 10.1537 15.8446 10.4457 15.8446C11.0288 15.8446 11.5006 15.3729 11.5006 14.7898C11.5006 14.2074 11.0286 13.7349 10.4457 13.7349C10.1569 13.7349 9.89367 13.569 9.76908 13.3084C9.6445 13.0477 9.68067 12.7387 9.86208 12.5139L10.6865 11.4922H9.10596C8.69174 11.4922 8.35596 11.1564 8.35596 10.7422Z" fill="#000000" />
<path fill-rule="evenodd" clip-rule="evenodd" d="M16.3959 10.0714C16.65 10.1984 16.8105 10.4581 16.8105 10.7422V16.5927C16.8105 17.0069 16.4747 17.3427 16.0605 17.3427C15.6463 17.3427 15.3105 17.0069 15.3105 16.5927V12.2424L15.2914 12.2567C14.9601 12.5053 14.49 12.4382 14.2414 12.1069C13.9928 11.7755 14.0599 11.3054 14.3913 11.0568L15.6104 10.1422C15.8377 9.97176 16.1417 9.94431 16.3959 10.0714Z" fill="#000000" />
</svg>