<svg width="24px"  height="24px"  viewBox="0 0 25 24" fill="none" xmlns="http://www.w3.org/2000/svg">
<path d="M11.6501 2.38269C12.0627 2.36267 12.4138 2.68264 12.4319 3.09265L12.4997 4.58572C12.5442 5.54803 12.5891 6.51034 12.6272 7.47265C12.6731 8.63263 12.2668 9.6726 11.3801 10.4526C10.6467 11.1026 10.4377 11.8827 10.5529 12.9827C10.6096 13.5226 10.6628 14.013 10.7131 14.4778C10.8767 15.9845 11.011 17.222 11.1379 19.0027C11.238 20.4127 10.0061 21.5027 8.77316 21.5027C7.53879 21.5027 6.30588 20.4127 6.40695 19.0027C6.53147 17.2518 6.66379 16.0317 6.82395 14.5574C6.87668 14.0698 6.93234 13.5543 6.99191 12.9827C7.10617 11.8827 6.89816 11.1026 6.16379 10.4526C5.27707 9.6726 4.87082 8.63263 4.9177 7.47265C4.9758 6.01263 5.04709 4.55264 5.11203 3.09265C5.13107 2.68264 5.48068 2.36267 5.89475 2.38269C6.30881 2.39267 6.62912 2.7427 6.61105 3.16272L6.54123 4.69873C6.49777 5.64578 6.45432 6.59134 6.41574 7.53271C6.38693 8.2727 6.62912 8.86264 7.15793 9.33264C8.36301 10.4026 8.63107 11.7227 8.48313 13.1327C8.24094 15.4627 8.06711 16.8126 7.90305 19.1127C7.87082 19.5526 8.30979 20.0027 8.77316 20.0027C9.23508 20.0027 9.67404 19.5526 9.64182 19.1127C9.51926 17.3835 9.38986 16.1914 9.2302 14.7161C9.17746 14.229 9.12131 13.711 9.06076 13.1327C8.91281 11.7227 9.18088 10.4026 10.386 9.33264C10.9157 8.86264 11.1579 8.2727 11.1281 7.53271C11.0896 6.56527 11.0451 5.59341 11.0002 4.62005C10.9778 4.13452 10.9553 3.64862 10.9338 3.16272C10.9148 2.7427 11.2361 2.39267 11.6501 2.38269Z" fill="#000000" />
<path d="M8.76584 7.42273C8.35178 7.41272 8.01682 7.0827 8.01779 6.66272L8.02805 3.20263C8.02902 2.79263 8.36594 2.45263 8.78 2.45263C9.19406 2.45263 9.52902 2.79263 9.52805 3.20263L9.51779 6.67273C9.51682 7.0827 9.1799 7.42273 8.76584 7.42273Z" fill="#000000" />
<path fill-rule="evenodd" clip-rule="evenodd" d="M13.8298 12.5027L13.8288 12.4827C13.6408 8.63266 14.3469 6.09265 15.1848 4.49267C15.6028 3.68264 16.051 3.12265 16.4289 2.74267C16.6169 2.55267 16.7888 2.41272 16.9328 2.30273C17.049 2.22271 17.2102 2.11273 17.3669 2.06274C17.8298 1.92273 18.3098 2.02264 18.6501 2.36267C18.9612 2.67267 19.0827 3.10266 19.0827 3.50268C19.0871 5.20266 19.0871 16.5727 19.0827 19.4327C19.0818 20.5027 18.3689 21.4427 17.2478 21.5027C16.0359 21.5627 15.092 20.6227 15.1599 19.3927C15.2175 18.353 15.278 17.716 15.3488 16.9661C15.3855 16.5763 15.425 16.1559 15.469 15.6327C15.4909 15.3727 15.466 15.2126 15.4221 15.1027C15.383 15.0027 15.3088 14.8927 15.1272 14.7627C14.3728 14.2427 13.9079 13.5227 13.8298 12.5027ZM17.5842 3.71084C17.5549 3.73871 17.5237 3.76928 17.4909 3.80273C17.2209 4.07272 16.863 4.51272 16.5149 5.18274C15.8225 6.51034 15.1526 8.76416 15.3259 12.3927C15.3669 12.9327 15.5759 13.2527 15.9797 13.5327C16.3659 13.8027 16.6511 14.1327 16.8161 14.5427C16.9748 14.9427 16.9968 15.3627 16.9641 15.7527C16.9182 16.3026 16.8777 16.7317 16.841 17.1219C16.7712 17.8599 16.7146 18.4588 16.6579 19.4727C16.6379 19.8226 16.8557 20.0227 17.1657 20.0027C17.3601 19.9927 17.5827 19.8527 17.5827 19.4327C17.5871 16.6707 17.5881 5.97213 17.5842 3.71084Z" fill="#000000" />
</svg>