<svg width="24px"  height="24px"  viewBox="0 0 25 25" fill="none" xmlns="http://www.w3.org/2000/svg">
<path fill-rule="evenodd" clip-rule="evenodd" d="M10.0049 19.0218C10.0049 17.6441 11.1216 16.5273 12.4993 16.5273C13.8776 16.5273 14.9946 17.6439 14.9946 19.0218C14.9946 20.3997 13.8776 21.5162 12.4993 21.5162C11.1216 21.5162 10.0049 20.3995 10.0049 19.0218ZM12.4993 18.0273C11.9501 18.0273 11.5049 18.4725 11.5049 19.0218C11.5049 19.571 11.9501 20.0162 12.4993 20.0162C13.0497 20.0162 13.4946 19.5708 13.4946 19.0218C13.4946 18.4728 13.0497 18.0273 12.4993 18.0273Z" fill="#000000" />
<path fill-rule="evenodd" clip-rule="evenodd" d="M10.0049 12.7679C10.0049 11.3902 11.1216 10.2734 12.4993 10.2734C13.8776 10.2734 14.9946 11.39 14.9946 12.7679C14.9946 14.1458 13.8776 15.2623 12.4993 15.2623C11.1216 15.2623 10.0049 14.1456 10.0049 12.7679ZM12.4993 11.7734C11.9501 11.7734 11.5049 12.2186 11.5049 12.7679C11.5049 13.3171 11.9501 13.7623 12.4993 13.7623C13.0497 13.7623 13.4946 13.3169 13.4946 12.7679C13.4946 12.2189 13.0497 11.7734 12.4993 11.7734Z" fill="#000000" />
<path fill-rule="evenodd" clip-rule="evenodd" d="M10.0049 6.51007C10.0049 5.13239 11.1216 4.01562 12.4993 4.01562C13.8776 4.01562 14.9946 5.13215 14.9946 6.51007C14.9946 7.888 13.8776 9.00452 12.4993 9.00452C11.1216 9.00452 10.0049 7.88776 10.0049 6.51007ZM12.4993 5.51562C11.9501 5.51562 11.5049 5.96082 11.5049 6.51007C11.5049 7.05933 11.9501 7.50452 12.4993 7.50452C13.0497 7.50452 13.4946 7.05909 13.4946 6.51007C13.4946 5.96106 13.0497 5.51562 12.4993 5.51562Z" fill="#000000" />
</svg>