<svg width="24px"  height="24px"  viewBox="0 0 25 24" fill="none" xmlns="http://www.w3.org/2000/svg">
<path d="M15.2734 15.4531C15.2734 15.8672 14.9375 16.2031 14.5234 16.2031H9.91064C9.49658 16.2031 9.16064 15.8672 9.16064 15.4531C9.16064 15.1641 9.3252 14.9121 9.56592 14.7871C9.66943 14.7344 9.78662 14.7031 9.91064 14.7031H14.5234C14.9375 14.7031 15.2734 15.0391 15.2734 15.4531Z" fill="#000000" />
<path d="M13.7358 11.8691C13.7358 12.2832 13.3994 12.6191 12.9858 12.6191H9.91064C9.49658 12.6191 9.16064 12.2832 9.16064 11.8691C9.16064 11.4551 9.49658 11.1191 9.91064 11.1191H12.9858C13.3994 11.1191 13.7358 11.4551 13.7358 11.8691Z" fill="#000000" />
<path fill-rule="evenodd" clip-rule="evenodd" d="M5.42236 11.6289H5.26855C3.93164 11.6289 2.84961 10.5469 2.84961 9.20898V4.66992C2.84961 3.33008 3.93262 2.25 5.26855 2.25H19.1636C20.5005 2.25 21.5806 3.33008 21.5806 4.66992V9.20898C21.5806 10.0898 21.1118 10.8613 20.4097 11.2852C20.0459 11.5039 19.6196 11.6289 19.1636 11.6289H19.0044L19.0137 19.5137C19.0156 20.7871 17.6846 21.627 16.5347 21.0762L15.9204 20.7812C15.7417 20.6953 15.5337 20.6895 15.3506 20.7637L13.5996 21.4785C12.7124 21.8418 11.7197 21.8418 10.8325 21.4785L9.08447 20.7656C8.98633 20.7246 8.88184 20.707 8.7793 20.7129C8.68848 20.7188 8.59863 20.7402 8.51465 20.7812L7.89453 21.0781C6.74658 21.6289 5.41553 20.7891 5.41748 19.5156L5.42236 11.6289ZM5.4248 7.21094C5.42578 6.79688 5.76074 6.46094 6.1748 6.46094H18.2495C18.6636 6.46094 18.9985 6.79492 18.9995 7.20898L19.0029 10.1289H19.1636C19.6704 10.1289 20.0806 9.71875 20.0806 9.20898V4.66992C20.0806 4.1582 19.6714 3.75 19.1636 3.75H5.26855C4.75977 3.75 4.34961 4.16016 4.34961 4.66992V9.20898C4.34961 9.71875 4.76074 10.1289 5.26855 10.1289H5.42285L5.4248 7.21094ZM17.5034 10.7832L17.5005 7.96094H6.92432L6.92285 10.8008C6.92578 10.8262 6.92676 10.8516 6.92676 10.8789C6.92676 10.9062 6.92529 10.9316 6.92236 10.957L6.91748 19.5156C6.9165 19.6855 7.09473 19.7988 7.24756 19.7246L7.8667 19.4277C8.19092 19.2734 8.54395 19.2012 8.89551 19.2129C9.15283 19.2227 9.40918 19.2773 9.65283 19.377L11.3994 20.0898C11.667 20.1992 11.9512 20.252 12.2349 20.248C12.5059 20.2461 12.7769 20.1934 13.0337 20.0898L14.7837 19.375C15.3584 19.1406 16.0078 19.1602 16.5684 19.4297L17.1836 19.7227C17.3374 19.7969 17.5146 19.6836 17.5137 19.5156L17.5039 10.9766C17.5 10.9453 17.4976 10.9121 17.4976 10.8789C17.4976 10.8457 17.4995 10.8145 17.5034 10.7832Z" fill="#000000" />
</svg>