<svg width="24px"  height="24px"  viewBox="0 0 25 24" fill="none" xmlns="http://www.w3.org/2000/svg">
<path fill-rule="evenodd" clip-rule="evenodd" d="M16.1523 12.2969C16.5666 12.2969 16.9023 12.6327 16.9023 13.0469V16.714C16.9023 17.1282 16.5666 17.464 16.1523 17.464C15.7381 17.464 15.4023 17.1282 15.4023 16.714V13.0469C15.4023 12.6327 15.7381 12.2969 16.1523 12.2969Z" fill="#000000" />
<path fill-rule="evenodd" clip-rule="evenodd" d="M12.291 12.2969C12.7052 12.2969 13.041 12.6327 13.041 13.0469V16.714C13.041 17.1282 12.7052 17.464 12.291 17.464C11.8768 17.464 11.541 17.1282 11.541 16.714V13.0469C11.541 12.6327 11.8768 12.2969 12.291 12.2969Z" fill="#000000" />
<path fill-rule="evenodd" clip-rule="evenodd" d="M8.43164 12.2969C8.84585 12.2969 9.18164 12.6327 9.18164 13.0469V16.714C9.18164 17.1282 8.84585 17.464 8.43164 17.464C8.01743 17.464 7.68164 17.1282 7.68164 16.714V13.0469C7.68164 12.6327 8.01743 12.2969 8.43164 12.2969Z" fill="#000000" />
<path fill-rule="evenodd" clip-rule="evenodd" d="M4.31484 10.5685C3.99617 10.9873 3.81864 11.7401 4.11709 13.0253L4.12075 13.0418L5.0908 17.6946L5.09429 17.7124C5.39519 19.3535 6.54069 19.893 7.33583 19.893H17.0928C17.8879 19.893 19.0334 19.3535 19.3343 17.7124L19.3378 17.6946L20.3079 13.0418L20.3116 13.025C20.6105 11.7398 20.4331 10.9872 20.1145 10.5685C19.8012 10.1567 19.1971 9.86719 18.166 9.86719H6.26264C5.23212 9.86719 4.62821 10.1566 4.31484 10.5685ZM3.12106 9.66024C3.83053 8.72773 4.98721 8.36719 6.26264 8.36719H18.166C19.4418 8.36719 20.5988 8.72766 21.3083 9.66024C22.0112 10.5842 22.1193 11.8673 21.7746 13.3563L20.808 17.9922C20.3646 20.3881 18.5589 21.393 17.0928 21.393H7.33583C5.86972 21.393 4.06404 20.3881 3.62059 17.9922L2.65402 13.3561C2.30975 11.8671 2.41823 10.584 3.12106 9.66024Z" fill="#000000" />
<path fill-rule="evenodd" clip-rule="evenodd" d="M10.1077 3.64963C11.1658 2.25742 13.2601 2.25742 14.3182 3.64963L18.0972 8.62252C18.3478 8.95231 18.2837 9.42282 17.9539 9.67344C17.6241 9.92406 17.1536 9.85988 16.9029 9.53009L13.1239 4.55725C13.1239 4.55724 13.1239 4.55726 13.1239 4.55725C12.6661 3.95491 11.7598 3.95488 11.302 4.55723C11.302 4.55724 11.302 4.55722 11.302 4.55723L7.52296 9.53009C7.27234 9.85988 6.80183 9.92406 6.47204 9.67344C6.14224 9.42282 6.07806 8.95231 6.32868 8.62252L10.1077 3.64963Z" fill="#000000" />
</svg>