<svg width="24px"  height="24px"  viewBox="0 0 25 25" fill="none" xmlns="http://www.w3.org/2000/svg">
<path fill-rule="evenodd" clip-rule="evenodd" d="M14.9463 17.1837C17.4053 15.8974 18.9375 13.0651 18.3042 10.0106C17.7842 7.51062 15.7729 5.52063 13.2803 5.01062C9.09229 4.16061 5.38721 7.34064 5.38721 11.3906C5.38721 13.9097 6.8125 16.0892 8.89795 17.174V18.6206C8.89795 20.2806 10.2583 21.6406 11.9224 21.6406C13.5859 21.6406 14.9463 20.2806 14.9463 18.6206V17.1837ZM9.84668 15.9606H14.019C16.0386 15.0471 17.3428 12.7904 16.8359 10.3207C16.438 8.41068 14.8872 6.87061 12.981 6.48059C9.73633 5.82059 6.88721 8.27063 6.88721 11.3906C6.88721 13.4344 8.10156 15.1886 9.84668 15.9606ZM13.4463 17.4606H10.3979V18.6206C10.3979 19.4506 11.0859 20.1406 11.9224 20.1406C12.7583 20.1406 13.4463 19.4506 13.4463 18.6206V17.4606Z" fill="#000000" />
<path d="M2.78516 11.3506C2.78516 10.9306 3.12109 10.6006 3.53516 10.6006H3.63135C4.04492 10.6006 4.38135 10.9306 4.38135 11.3506C4.38135 11.7606 4.04492 12.1006 3.63135 12.1006H3.53516C3.12109 12.1006 2.78516 11.7606 2.78516 11.3506Z" fill="#000000" />
<path d="M21.1934 11.3506C21.1934 11.7606 20.8584 12.1006 20.4434 12.1006H20.3701C19.9551 12.1006 19.6201 11.7606 19.6201 11.3506C19.6201 10.9306 19.9551 10.6006 20.3701 10.6006H20.4434C20.8584 10.6006 21.1934 10.9306 21.1934 11.3506Z" fill="#000000" />
<path d="M5.48096 4.84058C5.77441 4.54059 6.24902 4.54059 6.54199 4.84058L6.61035 4.90063C6.90332 5.20062 6.90332 5.67056 6.61035 5.96057C6.31738 6.26056 5.84229 6.26056 5.54932 5.96057L5.48096 5.90063C5.18799 5.60065 5.18799 5.13058 5.48096 4.84058Z" fill="#000000" />
<path d="M18.498 17.8506C18.2051 18.1506 17.73 18.1506 17.437 17.8506L17.3853 17.8007C17.0923 17.5107 17.0923 17.0306 17.3853 16.7406C17.6782 16.4506 18.1523 16.4506 18.4453 16.7406L18.498 16.7906C18.79 17.0807 18.79 17.5606 18.498 17.8506Z" fill="#000000" />
<path d="M18.498 4.84058C18.791 5.13058 18.791 5.60065 18.498 5.90063L18.4302 5.96057C18.1372 6.26056 17.6621 6.26056 17.3691 5.96057C17.0762 5.67056 17.0762 5.20062 17.3691 4.90063L17.437 4.84058C17.73 4.54059 18.2051 4.54059 18.498 4.84058Z" fill="#000000" />
<path d="M5.48096 17.8506C5.18799 17.5606 5.18799 17.0807 5.48096 16.7906L5.53418 16.7406C5.82715 16.4506 6.30127 16.4506 6.59424 16.7406C6.88721 17.0306 6.88721 17.5107 6.59424 17.8007L6.54199 17.8506C6.24902 18.1506 5.77441 18.1506 5.48096 17.8506Z" fill="#000000" />
<path d="M11.9902 2.14062C12.4043 2.14062 12.7402 2.48062 12.7402 2.89062V2.9906C12.7402 3.4006 12.4043 3.7406 11.9902 3.7406C11.5762 3.7406 11.2402 3.4006 11.2402 2.9906V2.89062C11.2402 2.48062 11.5762 2.14062 11.9902 2.14062Z" fill="#000000" />
</svg>