<svg width="24px"  height="24px"  viewBox="0 0 25 24" fill="none" xmlns="http://www.w3.org/2000/svg">
<path fill-rule="evenodd" clip-rule="evenodd" d="M17.1526 2.46967C17.4455 2.76256 17.4455 3.23744 17.1526 3.53033L16.3928 4.2902C16.1384 4.54457 15.9956 4.88892 15.9956 5.24945V6.24914H19.5196C20.6807 6.24914 21.5764 7.27557 21.4164 8.42746L19.7984 20.0976C19.6673 21.0444 18.858 21.7498 17.9016 21.7498L6.09406 21.75C4.42086 21.75 3.06445 20.3936 3.06445 18.7204V16.6402C3.06445 13.4482 5.65172 10.8621 8.84262 10.8621H9.79805C9.94117 10.8621 10.0831 10.8673 10.2236 10.8775L9.91248 8.42011C9.75705 7.2715 10.6506 6.24914 11.81 6.24914H14.4956V5.24945C14.4956 4.49108 14.7964 3.7652 15.3321 3.22954L16.092 2.46967C16.3849 2.17678 16.8597 2.17678 17.1526 2.46967ZM11.7776 11.2099C13.9942 12.0177 15.5762 14.1437 15.5762 16.6402V18.7204C15.5762 19.2783 15.4254 19.8009 15.1624 20.2498H17.9016C18.1089 20.2498 18.2842 20.097 18.3126 19.8918L19.5248 11.1487H11.7699L11.7776 11.2099ZM11.58 9.64874H19.7327L19.9306 8.22129C19.9652 7.97215 19.7712 7.74914 19.5196 7.74914H11.81C11.5583 7.74914 11.3648 7.9714 11.3991 8.22004L11.4002 8.22815L11.58 9.64874ZM4.56445 17.8377H5.88585C6.30006 17.8377 6.63585 17.5019 6.63585 17.0877C6.63585 16.6735 6.30006 16.3377 5.88585 16.3377H4.57498C4.73014 14.1155 6.58164 12.3621 8.84262 12.3621H9.79805C12.0599 12.3621 13.9106 14.1155 14.0657 16.3377H8.98987C8.57565 16.3377 8.23987 16.6735 8.23987 17.0877C8.23987 17.5019 8.57565 17.8377 8.98987 17.8377H14.0762V18.7204C14.0762 19.565 13.3914 20.2498 12.5465 20.2498L6.09406 20.25C5.24928 20.25 4.56445 19.5652 4.56445 18.7204V17.8377Z" fill="#000000" />
</svg>