<svg width="24px"  height="24px"  viewBox="0 0 25 24" fill="none" xmlns="http://www.w3.org/2000/svg">
<path fill-rule="evenodd" clip-rule="evenodd" d="M9.90341 3.06007C11.2714 1.97998 13.202 1.97998 14.57 3.06007L14.5733 3.06262L20.7995 8.03413C21.5422 8.60239 21.9842 9.47762 21.9996 10.413L21.9998 10.4254L21.9997 20.9995C21.9997 21.4137 21.6639 21.7495 21.2497 21.7495C20.8355 21.7495 20.4997 21.4137 20.4997 20.9995V10.4322C20.4902 9.95621 20.2641 9.51135 19.8841 9.22242L19.8701 9.21149L13.6405 4.23737C13.64 4.23697 13.6395 4.23657 13.639 4.23618C12.8168 3.58812 11.6575 3.58794 10.8351 4.23564L4.63112 9.21516C4.62525 9.21987 4.61931 9.2245 4.61331 9.22903C4.23393 9.51519 4.00716 9.96198 4 10.4392V20.9995C4 21.4137 3.66421 21.7495 3.25 21.7495C2.83579 21.7495 2.5 21.4137 2.5 20.9995V10.4249C2.51156 9.48719 2.95416 8.60633 3.70038 8.0388L9.90341 3.06007Z" fill="#000000" />
<path fill-rule="evenodd" clip-rule="evenodd" d="M7.94141 16.4975C7.94141 14.1075 9.87744 12.1699 12.268 12.1699C14.6575 12.1699 16.5946 14.1073 16.5946 16.4975V20.0741C16.5946 20.9991 15.8443 21.7494 14.9193 21.7494H9.61572C8.68967 21.7494 7.94141 20.9981 7.94141 20.0741V16.4975ZM12.268 13.6699C10.7064 13.6699 9.44141 14.9354 9.44141 16.4975V20.0741C9.44141 20.1717 9.52015 20.2494 9.61572 20.2494H14.9193C15.0159 20.2494 15.0946 20.1707 15.0946 20.0741V16.4975C15.0946 14.9355 13.8288 13.6699 12.268 13.6699Z" fill="#000000" />
</svg>