<svg width="24px"  height="24px"  viewBox="0 0 25 24" fill="none" xmlns="http://www.w3.org/2000/svg">
<path d="M8.28955 8.57463C8.28955 8.16057 8.62549 7.82463 9.03955 7.82463H11.5625C11.9766 7.82463 12.3125 8.16057 12.3125 8.57463C12.3125 8.98869 11.9766 9.32463 11.5625 9.32463H9.03955C8.7085 9.32463 8.42725 9.10979 8.32813 8.81096C8.30322 8.73674 8.28955 8.65666 8.28955 8.57463Z" fill="#000000" />
<path d="M8.28955 11.8051C8.28955 11.391 8.62549 11.0551 9.03955 11.0551H15.4746C15.8887 11.0551 16.2246 11.391 16.2246 11.8051C16.2246 12.2192 15.8887 12.5551 15.4746 12.5551H9.03955C8.62549 12.5551 8.28955 12.2192 8.28955 11.8051Z" fill="#000000" />
<path d="M8.68115 14.768C8.7876 14.7094 8.90967 14.6762 9.03955 14.6762H13.5186C13.9326 14.6762 14.2686 15.0121 14.2686 15.4262C14.2686 15.6254 14.1904 15.8071 14.063 15.9418C13.9263 16.0863 13.7329 16.1762 13.5186 16.1762H9.03955C8.62549 16.1762 8.28955 15.8403 8.28955 15.4262C8.28955 15.141 8.44776 14.8949 8.68115 14.768Z" fill="#000000" />
<path fill-rule="evenodd" clip-rule="evenodd" d="M17.2974 3.01604C18.5483 2.41838 19.9956 3.33049 19.9946 4.71721V19.2836C19.9956 20.6703 18.5483 21.5844 17.2964 20.9828L16.5874 20.643C16.3506 20.5297 16.0767 20.5219 15.8335 20.6215L13.8125 21.4457C12.8154 21.852 11.6997 21.852 10.7017 21.4457L8.68262 20.6215C8.44043 20.5219 8.16748 20.5297 7.93067 20.643L7.21631 20.9848C5.96533 21.5844 4.51758 20.6723 4.51953 19.2856V4.71916C4.51758 3.33244 5.96436 2.41838 7.21631 3.01799L7.92676 3.35783C8.1626 3.47111 8.43653 3.47893 8.67969 3.37932L10.7017 2.5551C11.2456 2.33439 11.8252 2.23283 12.4014 2.25236C12.8809 2.26994 13.3584 2.36955 13.8115 2.5551L15.8296 3.37932C16.0728 3.47893 16.3457 3.47111 16.5825 3.35783L17.2974 3.01604ZM18.4946 4.71525C18.4946 4.434 18.1997 4.2465 17.9443 4.36955L17.2295 4.71135C16.6113 5.00627 15.8965 5.02775 15.2627 4.76799L13.2446 3.94377C12.6104 3.68596 11.9014 3.68596 11.2676 3.94377L9.24561 4.76799C8.90528 4.90666 8.54151 4.96525 8.18213 4.94377C7.87158 4.92619 7.56446 4.84807 7.27832 4.71135L6.56738 4.3715C6.31348 4.24846 6.01856 4.434 6.01953 4.71721V19.2875C6.01856 19.5688 6.3125 19.7543 6.56836 19.6313L7.28467 19.2895C7.90137 18.9946 8.61768 18.9731 9.25049 19.2328L11.2686 20.0571C11.9023 20.3149 12.6113 20.3149 13.2456 20.0571L15.2686 19.2309C15.9023 18.9731 16.6167 18.9946 17.2354 19.2914L17.9453 19.6313C18.1997 19.7524 18.4946 19.5668 18.4946 19.2836V4.71525Z" fill="#000000" />
</svg>