<svg width="24px"  height="24px"  viewBox="0 0 25 24" fill="none" xmlns="http://www.w3.org/2000/svg">
<path fill-rule="evenodd" clip-rule="evenodd" d="M3.24018 13.175C3.74261 12.636 4.44866 12.3477 5.24848 12.3477H10.3264C11.1277 12.3477 11.8342 12.6357 12.3365 13.1754C12.8333 13.709 13.0749 14.428 13.0749 15.1983V18.52C13.0749 19.2903 12.8333 20.0093 12.3365 20.5429C11.8342 21.0826 11.1277 21.3707 10.3264 21.3707H5.24848C4.44723 21.3707 3.74075 21.0826 3.23836 20.5429C2.74161 20.0093 2.5 19.2903 2.5 18.52V15.1983C2.5 14.4271 2.74318 13.7082 3.24018 13.175ZM4.33738 14.1978C4.14212 14.4073 4 14.7387 4 15.1983V18.52C4 18.9806 4.14174 19.3119 4.33628 19.5209C4.52519 19.7238 4.81796 19.8707 5.24848 19.8707H10.3264C10.7569 19.8707 11.0497 19.7238 11.2386 19.5209C11.4332 19.3119 11.5749 18.9806 11.5749 18.52V15.1983C11.5749 14.7377 11.4332 14.4064 11.2386 14.1974C11.0497 13.9945 10.7569 13.8477 10.3264 13.8477H5.24848C4.82042 13.8477 4.52722 13.9942 4.33738 14.1978Z" fill="#000000" />
<path fill-rule="evenodd" clip-rule="evenodd" d="M2.5 15.7695C2.5 15.3553 2.83579 15.0195 3.25 15.0195H12.3249C12.7391 15.0195 13.0749 15.3553 13.0749 15.7695C13.0749 16.1837 12.7391 16.5195 12.3249 16.5195H3.25C2.83579 16.5195 2.5 16.1837 2.5 15.7695Z" fill="#000000" />
<path fill-rule="evenodd" clip-rule="evenodd" d="M12.164 3.45627C12.6664 2.91729 13.3725 2.62891 14.1723 2.62891H19.2502C20.0515 2.62891 20.758 2.91697 21.2604 3.45665C21.7571 3.99028 21.9987 4.7093 21.9987 5.47955V8.80128C21.9987 9.57153 21.7571 10.2905 21.2604 10.8242C20.758 11.3639 20.0515 11.6519 19.2502 11.6519H14.1723C13.3711 11.6519 12.6646 11.3639 12.1622 10.8242C11.6654 10.2905 11.4238 9.57153 11.4238 8.80128V5.47955C11.4238 4.7083 11.667 3.98942 12.164 3.45627ZM13.2612 4.47908C13.0659 4.68855 12.9238 5.01999 12.9238 5.47955V8.80128C12.9238 9.26183 13.0656 9.59314 13.2601 9.80213C13.449 10.0051 13.7418 10.1519 14.1723 10.1519H19.2502C19.6808 10.1519 19.9735 10.0051 20.1624 9.80213C20.357 9.59314 20.4987 9.26183 20.4987 8.80128V5.47955C20.4987 5.019 20.357 4.68769 20.1624 4.4787C19.9735 4.27576 19.6808 4.12891 19.2502 4.12891H14.1723C13.7442 4.12891 13.4511 4.27544 13.2612 4.47908Z" fill="#000000" />
<path fill-rule="evenodd" clip-rule="evenodd" d="M11.4238 6.04688C11.4238 5.63266 11.7596 5.29688 12.1738 5.29688H21.2487C21.6629 5.29688 21.9987 5.63266 21.9987 6.04688C21.9987 6.46109 21.6629 6.79688 21.2487 6.79688H12.1738C11.7596 6.79688 11.4238 6.46109 11.4238 6.04688Z" fill="#000000" />
<path fill-rule="evenodd" clip-rule="evenodd" d="M19.8898 14.4219C20.304 14.4219 20.6398 14.7577 20.6398 15.1719V17.2219C20.6398 19.5129 18.7834 21.3695 16.4932 21.3695C16.079 21.3695 15.7432 21.0338 15.7432 20.6195C15.7432 20.2053 16.079 19.8695 16.4932 19.8695C17.9547 19.8695 19.1398 18.6847 19.1398 17.2219V15.1719C19.1398 14.7577 19.4756 14.4219 19.8898 14.4219Z" fill="#000000" />
<path fill-rule="evenodd" clip-rule="evenodd" d="M19.3602 14.5673C19.653 14.2745 20.1277 14.2744 20.4206 14.5671L21.7799 15.9254C22.0729 16.2182 22.073 16.6931 21.7803 16.9861C21.4875 17.2791 21.0126 17.2792 20.7196 16.9864L19.8907 16.1581L19.0626 16.9863C18.7697 17.2791 18.2948 17.2791 18.0019 16.9863C17.709 16.6934 17.709 16.2185 18.0019 15.9256L19.3602 14.5673Z" fill="#000000" />
<path fill-rule="evenodd" clip-rule="evenodd" d="M8.00504 4.12891C6.54351 4.12891 5.3584 5.31373 5.3584 6.77652V8.82657C5.3584 9.24079 5.02261 9.57657 4.6084 9.57657C4.19418 9.57657 3.8584 9.24079 3.8584 8.82657V6.77652C3.8584 4.48559 5.7148 2.62891 8.00504 2.62891C8.41925 2.62891 8.75504 2.96469 8.75504 3.37891C8.75504 3.79312 8.41925 4.12891 8.00504 4.12891Z" fill="#000000" />
<path fill-rule="evenodd" clip-rule="evenodd" d="M2.71948 7.01283C3.01227 6.71983 3.48714 6.71966 3.78014 7.01245L4.60905 7.84077L5.43718 7.01264C5.73007 6.71975 6.20495 6.71975 6.49784 7.01264C6.79073 7.30553 6.79073 7.78041 6.49784 8.0733L5.13957 9.43157C4.84675 9.72439 4.37202 9.72447 4.0791 9.43176L2.71986 8.07349C2.42686 7.7807 2.42669 7.30583 2.71948 7.01283Z" fill="#000000" />
</svg>