<svg width="24px"  height="24px"  viewBox="0 0 25 24" fill="none" xmlns="http://www.w3.org/2000/svg">
<path fill-rule="evenodd" clip-rule="evenodd" d="M5.03135 4.78354C5.0313 4.78359 5.0314 4.78349 5.03135 4.78354C6.40518 3.41085 8.63231 3.41075 10.0061 4.78354C10.006 4.78349 10.0061 4.78359 10.0061 4.78354L19.4683 14.2457C20.8421 15.6196 20.8421 17.8466 19.4683 19.2205C18.0945 20.5943 15.8674 20.5943 14.4936 19.2205L5.03151 9.75841C5.03156 9.75846 5.03146 9.75836 5.03151 9.75841C3.65872 8.38465 3.65866 6.15736 5.03135 4.78354ZM3.97085 3.72272C5.93042 1.7643 9.10701 1.7643 11.0666 3.72272L20.5289 13.1851C22.4885 15.1447 22.4885 18.3215 20.5289 20.2811C18.5693 22.2407 15.3925 22.2407 13.4329 20.2811L3.97069 10.8189C2.01227 8.85935 2.01242 5.68229 3.97085 3.72272Z" fill="#000000" />
<path fill-rule="evenodd" clip-rule="evenodd" d="M8.20407 7.99699C8.49697 7.70411 8.97185 7.70413 9.26473 7.99704L9.2706 8.00291C9.56348 8.29582 9.56346 8.77069 9.27056 9.06357C8.97765 9.35645 8.50278 9.35643 8.2099 9.06353L8.20402 9.05765C7.91114 8.76475 7.91116 8.28987 8.20407 7.99699ZM11.3033 8.42336C11.5962 8.13048 12.0711 8.1305 12.364 8.42341L12.3698 8.42928C12.6627 8.72219 12.6627 9.19706 12.3698 9.48994C12.0769 9.78282 11.602 9.7828 11.3091 9.4899L11.3033 9.48402C11.0104 9.19112 11.0104 8.71624 11.3033 8.42336ZM8.63039 11.0963C8.92328 10.8034 9.39815 10.8033 9.69105 11.0962L9.69693 11.1021C9.98984 11.395 9.98985 11.8699 9.69697 12.1628C9.40409 12.4557 8.92922 12.4557 8.63631 12.1628L8.63044 12.1569C8.33753 11.864 8.33751 11.3892 8.63039 11.0963ZM11.7297 11.5226C12.0226 11.2297 12.4975 11.2297 12.7904 11.5227L12.7962 11.5285C13.0891 11.8215 13.0891 12.2963 12.7961 12.5892C12.5032 12.8821 12.0284 12.882 11.7355 12.5891L11.7296 12.5832C11.4367 12.2903 11.4368 11.8154 11.7297 11.5226ZM14.8289 11.949C15.1218 11.6561 15.5967 11.6561 15.8895 11.949L15.8954 11.9549C16.1883 12.2478 16.1883 12.7226 15.8954 13.0155C15.6025 13.3084 15.1277 13.3084 14.8348 13.0155L14.8289 13.0097C14.536 12.7168 14.536 12.2419 14.8289 11.949ZM12.156 14.6219C12.4489 14.329 12.9238 14.329 13.2167 14.6219L13.2226 14.6277C13.5154 14.9206 13.5154 15.3955 13.2226 15.6884C12.9297 15.9813 12.4548 15.9813 12.1619 15.6884L12.156 15.6825C11.8631 15.3896 11.8631 14.9147 12.156 14.6219ZM15.2552 15.0483C15.5481 14.7554 16.023 14.7553 16.3159 15.0482L16.3217 15.0541C16.6147 15.3469 16.6147 15.8218 16.3218 16.1147C16.029 16.4076 15.5541 16.4077 15.2612 16.1148L15.2553 16.1089C14.9624 15.8161 14.9623 15.3412 15.2552 15.0483Z" fill="#000000" />
<path fill-rule="evenodd" clip-rule="evenodd" d="M6.75242 11.4715C7.04431 11.7654 7.04269 12.2402 6.7488 12.5321L5.03245 14.2368C3.6663 15.6145 3.66627 17.8398 5.03234 19.2175C6.41114 20.5847 8.63643 20.5844 10.014 19.2174L11.7188 17.5018C12.0108 17.208 12.4857 17.2065 12.7795 17.4985C13.0733 17.7905 13.0748 18.2654 12.7828 18.5592L11.0728 20.2799C9.10964 22.2305 5.93749 22.2302 3.97354 20.28L3.96982 20.2763C2.02048 18.3132 2.02048 15.1412 3.96982 13.1781L3.97348 13.1745L5.69177 11.4679C5.98566 11.176 6.46053 11.1776 6.75242 11.4715Z" fill="#000000" />
<path fill-rule="evenodd" clip-rule="evenodd" d="M19.4656 4.78142C18.101 3.40723 15.8773 3.40454 14.4986 4.78328L14.4968 4.78509L14.4968 4.78509L12.7785 6.49169C12.4846 6.78358 12.0098 6.78196 11.7179 6.48807C11.426 6.19418 11.4276 5.71931 11.7215 5.42742L13.4389 3.72167C15.4005 1.76109 18.574 1.75779 20.5272 3.72168C21.5186 4.70084 21.9991 5.9828 21.9991 7.26821C21.9991 8.54477 21.5168 9.82459 20.5292 10.8128C20.5288 10.8131 20.5285 10.8135 20.5281 10.8138L18.8243 12.5293C18.5324 12.8232 18.0576 12.8248 17.7637 12.5329C17.4698 12.241 17.4682 11.7661 17.7601 11.4722L19.4657 9.75494L19.4675 9.75313C20.1624 9.05821 20.4991 8.16484 20.4991 7.26821C20.4991 6.35783 20.1612 5.46736 19.4712 4.78697L19.4656 4.78145L19.4656 4.78142Z" fill="#000000" />
</svg>