<svg width="24px"  height="24px"  viewBox="0 0 25 24" fill="none" xmlns="http://www.w3.org/2000/svg">
<path d="M3.25 4.44019C3.25 4.02618 3.58594 3.69019 4 3.69019H19.5601C19.9741 3.69019 20.3101 4.02618 20.3101 4.44019C20.3101 4.85419 19.9741 5.19019 19.5601 5.19019H4C3.58594 5.19019 3.25 4.85419 3.25 4.44019Z" fill="#000000" />
<path d="M3.25 19.0602C3.25 18.6462 3.58594 18.3102 4 18.3102H19.5601C19.9741 18.3102 20.3101 18.6462 20.3101 19.0602C20.3101 19.4742 19.9741 19.8102 19.5601 19.8102H4C3.58594 19.8102 3.25 19.4742 3.25 19.0602Z" fill="#000000" />
<path d="M11.1421 12.5312V13.4012H12.9868C13.4009 13.4012 13.7368 13.7372 13.7368 14.1512C13.7368 14.5652 13.4009 14.9012 12.9868 14.9012H10.3921C9.97705 14.9012 9.64209 14.5652 9.64209 14.1512V9.41016C9.64209 8.99615 9.97705 8.66016 10.3921 8.66016H12.9868C13.4009 8.66016 13.7368 8.99615 13.7368 9.41016C13.7368 9.82416 13.4009 10.1602 12.9868 10.1602H11.1421V11.0312H12.5132C12.9268 11.0312 13.2632 11.3672 13.2632 11.7812C13.2632 12.1952 12.9268 12.5312 12.5132 12.5312H11.1421Z" fill="#000000" />
<path d="M4.15918 15.0842C3.74512 15.0842 3.40918 14.7491 3.40918 14.3342V9.54517C3.40918 9.22314 3.61377 8.93719 3.91992 8.83417C4.2251 8.73218 4.56201 8.83514 4.75586 9.09216L6.93506 11.9658V9.41016C6.93506 8.99615 7.27002 8.66016 7.68506 8.66016C8.09912 8.66016 8.43506 8.99615 8.43506 9.41016V14.1952C8.43506 14.5172 8.229 14.8032 7.92383 14.9062C7.61816 15.0092 7.28223 14.9052 7.08691 14.6482L4.90918 11.7761V14.3342C4.90918 14.7491 4.57275 15.0842 4.15918 15.0842Z" fill="#000000" />
<path d="M14.8979 8.67218C15.3062 8.59918 15.6958 8.86914 15.77 9.27716L16.21 11.7177L16.8379 10.3932C16.9619 10.1312 17.2261 9.96417 17.5151 9.96417C17.8052 9.96417 18.0688 10.1312 18.1929 10.3932L18.8213 11.7192L19.2622 9.27716C19.3359 8.86914 19.7261 8.59821 20.1328 8.67218C20.541 8.74615 20.812 9.13623 20.7378 9.54321L19.8818 14.2842C19.8242 14.6052 19.5659 14.8522 19.2422 14.8952C18.9189 14.9372 18.606 14.7672 18.4658 14.4722L17.5156 12.4655L16.5649 14.4722C16.4248 14.7672 16.1108 14.9372 15.7881 14.8952C15.4648 14.8522 15.207 14.6052 15.1489 14.2842L14.293 9.54321C14.2202 9.13623 14.4912 8.74615 14.8979 8.67218Z" fill="#000000" />
</svg>