<svg width="24px"  height="24px"  viewBox="0 0 25 24" fill="none" xmlns="http://www.w3.org/2000/svg">
<path fill-rule="evenodd" clip-rule="evenodd" d="M15.0371 13.621C15.0371 13.2068 15.3729 12.871 15.7871 12.871H17.5844C17.9986 12.871 18.3344 13.2068 18.3344 13.621C18.3344 14.0352 17.9986 14.371 17.5844 14.371H15.7871C15.3729 14.371 15.0371 14.0352 15.0371 13.621Z" fill="#000000" />
<path fill-rule="evenodd" clip-rule="evenodd" d="M6.15625 13.621C6.15625 13.2068 6.49204 12.871 6.90625 12.871H8.70355C9.11776 12.871 9.45355 13.2068 9.45355 13.621C9.45355 14.0352 9.11776 14.371 8.70355 14.371H6.90625C6.49204 14.371 6.15625 14.0352 6.15625 13.621Z" fill="#000000" />
<path fill-rule="evenodd" clip-rule="evenodd" d="M2.51143 9.32864C2.56958 8.91853 2.94918 8.63321 3.35929 8.69136C9.25064 9.52669 15.2304 9.52669 21.1217 8.69136C21.5318 8.63321 21.9114 8.91853 21.9696 9.32864C22.0277 9.73875 21.7424 10.1184 21.3323 10.1765C15.3013 11.0316 9.17975 11.0316 3.14871 10.1765C2.7386 10.1184 2.45328 9.73875 2.51143 9.32864Z" fill="#000000" />
<path fill-rule="evenodd" clip-rule="evenodd" d="M8.05281 4.0011C10.837 3.56213 13.6726 3.56213 16.4568 4.0011L16.4596 4.00155C17.5137 4.17193 18.4216 4.93144 18.7759 5.93834C18.7763 5.93944 18.7767 5.94053 18.7771 5.94163L19.8239 8.84916C19.8239 8.8491 19.8239 8.84922 19.8239 8.84916C19.8548 8.9345 19.8969 9.01578 19.9495 9.09129L21.1128 10.6524C21.6861 11.4347 21.9954 12.3795 21.9962 13.3493V18.5775C21.9962 19.544 21.2127 20.3275 20.2462 20.3275H18.2512C17.2847 20.3275 16.5012 19.544 16.5012 18.5775V18.1676C16.5012 18.0296 16.3893 17.9176 16.2512 17.9176H8.23814C8.10007 17.9176 7.98814 18.0296 7.98814 18.1676V18.5775C7.98814 19.544 7.20464 20.3275 6.23814 20.3275H4.25684C3.2882 20.3275 2.50381 19.5406 2.50684 18.572L2.52315 13.3703C2.52315 13.3697 2.52315 13.369 2.52315 13.3683C2.52171 12.4116 2.8233 11.4788 3.38473 10.704L4.57596 9.0639C4.62633 8.99634 4.66717 8.92236 4.69735 8.84383L5.74327 5.93869C6.09554 4.93538 6.99718 4.17683 8.04644 4.00213L8.05281 4.0011ZM8.28994 5.48224C7.78126 5.56807 7.32834 5.95004 7.15799 6.43725L7.15571 6.4438L6.10236 9.36946C6.02312 9.57911 5.91511 9.77657 5.78161 9.95642L4.59938 11.5841C4.59931 11.5842 4.59946 11.584 4.59938 11.5841C4.22378 12.1026 4.02191 12.7271 4.02315 13.3674L4.02315 13.3712L4.00684 18.5767C4.0064 18.7151 4.11846 18.8275 4.25684 18.8275H6.23814C6.37622 18.8275 6.48814 18.7155 6.48814 18.5775V18.1676C6.48814 17.2012 7.27165 16.4176 8.23814 16.4176H16.2512C17.2177 16.4176 18.0012 17.2012 18.0012 18.1676V18.5775C18.0012 18.7155 18.1132 18.8275 18.2512 18.8275H20.2462C20.3842 18.8275 20.4962 18.7155 20.4962 18.5775V13.3505C20.4957 12.6999 20.2884 12.0662 19.9045 11.5413C19.9039 11.5405 19.9034 11.5397 19.9028 11.539L18.7406 9.97934L18.73 9.96469C18.5981 9.77848 18.4914 9.57531 18.4133 9.35938L18.4129 9.35833L17.3615 6.43784C17.19 5.94849 16.7331 5.56574 16.2216 5.48254C13.5939 5.06842 10.9176 5.06832 8.28994 5.48224Z" fill="#000000" />
</svg>