<svg width="24px"  height="24px"  viewBox="0 0 25 25" fill="none" xmlns="http://www.w3.org/2000/svg">
<path d="M5.79027 21.8216C5.43315 21.8193 5.08116 21.7364 4.76052 21.5791C4.43988 21.4219 4.15885 21.1943 3.93837 20.9133C3.71788 20.6324 3.56362 20.3053 3.48708 19.9565C3.41053 19.6077 3.41368 19.2461 3.49627 18.8986L5.11827 12.0376L3.49627 5.17862C3.39009 4.7339 3.41515 4.26795 3.56842 3.83719C3.72168 3.40642 3.99657 3.02935 4.35979 2.75165C4.72301 2.47394 5.15896 2.30752 5.61484 2.27255C6.07072 2.23758 6.52695 2.33556 6.92827 2.55462L20.4413 9.96362C20.8133 10.1681 21.1236 10.4687 21.3397 10.8341C21.5558 11.1994 21.6698 11.6161 21.6698 12.0406C21.6698 12.4651 21.5558 12.8818 21.3397 13.2472C21.1236 13.6126 20.8133 13.9132 20.4413 14.1176L6.92827 21.5256C6.58013 21.7191 6.18855 21.8209 5.79027 21.8216ZM5.79627 3.76062C5.60782 3.76415 5.42524 3.82678 5.27427 3.93963C5.13899 4.04043 5.03659 4.17902 4.98 4.33795C4.9234 4.49688 4.91515 4.66902 4.95627 4.83264L6.61827 11.8686C6.64528 11.9824 6.64528 12.1009 6.61827 12.2146L4.95627 19.2486C4.91653 19.4111 4.92484 19.5816 4.98021 19.7394C5.03557 19.8972 5.1356 20.0356 5.26813 20.1376C5.40066 20.2396 5.55997 20.3009 5.7267 20.3141C5.89343 20.3272 6.06039 20.2916 6.20727 20.2116L19.7213 12.7986C19.8576 12.7232 19.9712 12.6127 20.0503 12.4785C20.1294 12.3443 20.1711 12.1914 20.1711 12.0356C20.1711 11.8798 20.1294 11.727 20.0503 11.5928C19.9712 11.4586 19.8576 11.348 19.7213 11.2726L6.20727 3.86963C6.08169 3.79914 5.94028 3.76163 5.79627 3.76062Z" fill="#000000" />
<path d="M5.92969 12.8125C5.73078 12.8125 5.54001 12.7335 5.39936 12.5929C5.25871 12.4522 5.17969 12.2614 5.17969 12.0625C5.17969 11.8636 5.25871 11.6729 5.39936 11.5322C5.54001 11.3916 5.73078 11.3125 5.92969 11.3125L14.2627 11.2695C14.4616 11.2695 14.6524 11.3486 14.793 11.4892C14.9337 11.6299 15.0127 11.8206 15.0127 12.0195C15.0127 12.2184 14.9337 12.4092 14.793 12.5499C14.6524 12.6905 14.4616 12.7695 14.2627 12.7695L5.92969 12.8125Z" fill="#000000" />
</svg>