<svg width="24px"  height="24px"  viewBox="0 0 25 25" fill="none" xmlns="http://www.w3.org/2000/svg">
<path fill-rule="evenodd" clip-rule="evenodd" d="M2.49902 12.7472C2.49902 7.65787 6.62489 3.5332 11.714 3.5332C16.8021 3.5332 20.928 7.65792 20.928 12.7472C20.928 17.8365 16.8021 21.9612 11.714 21.9612C6.62489 21.9612 2.49902 17.8365 2.49902 12.7472ZM11.714 5.0332C7.45309 5.0332 3.99902 8.48652 3.99902 12.7472C3.99902 17.0079 7.45309 20.4612 11.714 20.4612C15.9738 20.4612 19.428 17.0079 19.428 12.7472C19.428 8.48646 15.9738 5.0332 11.714 5.0332Z" fill="#000000" />
<path fill-rule="evenodd" clip-rule="evenodd" d="M6.37988 12.7471C6.37988 9.79982 8.76872 7.41211 11.7148 7.41211C14.6601 7.41211 17.0489 9.79991 17.0489 12.7471C17.0489 15.6924 14.66 18.0811 11.7148 18.0811C8.76873 18.0811 6.37988 15.6924 6.37988 12.7471ZM11.7148 8.91211C9.59696 8.91211 7.87988 10.6284 7.87988 12.7471C7.87988 14.8638 9.59696 16.5811 11.7148 16.5811C13.8316 16.5811 15.5489 14.8639 15.5489 12.7471C15.5489 10.6284 13.8316 8.91211 11.7148 8.91211Z" fill="#000000" />
<path fill-rule="evenodd" clip-rule="evenodd" d="M19.1375 2.60352C19.5517 2.60352 19.8875 2.9393 19.8875 3.35352V4.71552H21.2515C21.6657 4.71552 22.0015 5.0513 22.0015 5.46552C22.0015 5.87973 21.6657 6.21552 21.2515 6.21552H19.4482L12.5079 13.1568C12.215 13.4497 11.7402 13.4498 11.4472 13.1569C11.1543 12.864 11.1543 12.3891 11.4472 12.0962L18.3875 5.15489V3.35352C18.3875 2.9393 18.7233 2.60352 19.1375 2.60352Z" fill="#000000" />
</svg>